<svg xmlns="http://www.w3.org/2000/svg" viewBox="0 0 145.86 9.44"><defs><style>.cls-1{fill:#666666;}</style></defs><title>Asset 12</title><g id="Layer_2" data-name="Layer 2"><g id="Layer_1-2" data-name="Layer 1"><path class="cls-1" d="M69.65,6c-.2,0-.28.07-.29.13C69.54,6.11,69.69,6.08,69.65,6Z"/><path class="cls-1" d="M74,6.88l-.25,0C73.83,6.89,73.93,6.93,74,6.88Z"/><path class="cls-1" d="M9.89,5.39s0-.06,0-.1S9.82,5.38,9.89,5.39Z"/><path class="cls-1" d="M82,7.84h0C81.72,7.89,81.84,7.88,82,7.84Z"/><path class="cls-1" d="M100.22,7.81c0,.06,0,.13.18.26A.64.64,0,0,0,100.22,7.81Z"/><path class="cls-1" d="M107.56,7.49c.18,0,.24.13.49.06A.37.37,0,0,0,107.56,7.49Z"/><path class="cls-1" d="M115,7.71a.26.26,0,0,0-.36-.09Z"/><path class="cls-1" d="M32.53,5.79a1.6,1.6,0,0,1-.34-.52C32.3,5.68,31.2,5.8,32.53,5.79Z"/><path class="cls-1" d="M145.86,5.48c-3.09-.93-.3-1.36-8.45-2.37.55,1-.77.6-1.21.54.22-.21.36-.46-.17-.71.28.22-2.57-1.2-2.72-1.28.13.46-.53.57-1.27.32l1,.68c-1.92.44-1.48-1.22-3.41-.75l.62-.33c-.62.08-4.81.06-4.47,0-2.28-.33-5.13.72-6.86,0l.18-.29c-.22,0-2.94.2-3,.18l.49-.32c-3.18-.66-5,1-7.84-.58C103.32.33,100,1.93,94.64.72c0,0-1.25,1.26-1.73.6C91,0,90.18.15,90.31,1.78,89,.94,82.82.7,81.11,1.52q.4-2.68-4.24-.62l.39-.41c.79,0-11.37,2.14-8.36.89a.44.44,0,0,1,.39-.4c-.89,0-3.46-.56-3.13.6,0-.76-2-.07-3,.26l.16-.56q-2.7,2.28-2,.81c-.95-.29-.74.53-1.89.23L59.91,2a2.74,2.74,0,0,1-3.45-.08c-1.21.82-1.55.89-1,.2-1.44-.33-2.59.46-3.75-.23A15.43,15.43,0,0,1,54,2c0-.52-1.05-.61-.22-1.32-1.36.62-3.54,1.74-3.34.75-.51-.12-4.7-.48-3.23.6a5.52,5.52,0,0,0,.68-.15l0,0,1.3,0c-1.53,1-9.71.37-9.92.16.26-.1.57-.08.72-.23-1.79.51-2.56.15-3.85.24l.22-.22C33.19.58,31.2,3.6,27.79,2c.23.1.35.14.4.27A7,7,0,0,1,25.7,2l.29.1a2.39,2.39,0,0,1-.87-.19l.31.16c5.48.12-5,.63-3.83-.56-.66.47-1.07-.42-2,.27,0-.2-.7,0-.54-.53-1.62.25-8-.61-10.53,0l0-.08a.94.94,0,0,0-.38.17l.21,0c-.36,0-.35.2,0,.5a5.38,5.38,0,0,0-.62,0,1.63,1.63,0,0,1,.41-.42c-.23,0-2.69.88-1.48-.07-.73.46-1.08.48-1,.05-1.11.62-1.66.59-2-.19C4.36.18-1,1.5.16,1.75L0,2c.11-.33,1,1.31,2.6,2.57l-1,0c.73.62,2.56,0,3.07-.4,0,0,1.64.73,1.36.82s4-1.16,3.87.33a3.41,3.41,0,0,1,1.64-.65c-1.06,1,2.06.14,1.74,1.26.79-.92,2.71-.3,4-.79-.07.07-.22.22-.34.17a4,4,0,0,1,1.42.59C20,4.16,20.59,7.72,20,6.12c0-.64,1.6-.59,1.31-1.13.68.49.59.25.93.91.23-1.51,2.2-.15,2.12.55-.16,0,4.46-1.13,4-.66,1.8-1.5,3.07-1.68,3.81-.52a1.8,1.8,0,0,1-.06-.22h.38a.24.24,0,0,0,0,.09h0a1.4,1.4,0,0,0-.12.18,1.78,1.78,0,0,1,1-.42l-.11.28c1.89,0,6.27.34,9.13.11l-.34.63c1.56.09.9-1.1,2.53-.57-.82.85,2.81.11,6-.1-.53,1,2.6.75,2.48.76.37,0,.27-.11.17-.24-.4,0,4.51-.06,5.4,0-1-.27,5.39.9,5.27.79l-.64-.89c.44,0,4.35.33,5,.48-.3-.42,1.22-1.63,1,0-1.36.32,1.44.69,1.29.85.76-.2.34-.37-.22-.51,1.27.38,2,.07,3.31.34-1.4-.93,4.82-.61,2.85.51,1.21-.42,2.23.37,2.91.47L78.86,8a3.29,3.29,0,0,1,1-.08l-.35-.48c.37.09.69.1.67.3.14-1.43.86-1.69,2.17-.78-1.55-.26.15.64-1.17.7.92-.19,1.18-.12.78.2,1.47.61.7-.69,2.25-.63-.21.35.33.69.59.62.07-1,.7-1.38,1.89-1l-.58-.15c1-1.66,4.76,1.81,6.8,1.26-.35-.49-.42-.37.48-.81l-2.08.27,1.35-.65c-.62,0-1.32.26-1.69.17.64-.37.57-.26.28-.66,1.91,1.7,4.38.64,7.18,1.16C97.25,7.1,97.65,7,99.65,7c-.07.4.32.55.57.8,0-.29,1.41.07,1.61-.71,1.88.87,2.18-.58,4.14-.34-.46.41.21.71-.8,1,.5,0,1,.1,1-.17.44.39,2.58-.39,2.7-.43,0-.2.88-.24.41-.69,1.7,1.45,7.14,1,9,1-.07.12,0,.2-.2.15,2.2.66,2.47-1.34,5,.6l-.26.07c.79.46,2-.44,3.27-.31-.17,1.48,1.12,1.22,3.85-.75-.33.41,1.06-.16.82.94,1.55-.51,2.17-.35,1.85.47a7.57,7.57,0,0,1,6.28-.09l-.48.17a5.22,5.22,0,0,1,3.65.67c-.17-.64.11-.61.85.11C142.85,9,145.88,9.14,145.86,5.48ZM48.14,1.37l0,.07c.07-.38.29-.42.65-.14C48.59,1.31,48.4,1.33,48.14,1.37ZM32.08,4.88c-.23-.5-.11-.71.35-.63A.73.73,0,0,1,32.08,4.88Zm.66,0a1.45,1.45,0,0,1,.57-.21C33.28,4.86,33,4.84,32.74,4.9Zm.9.27c.55,0,1.1-.21,1.71-.27-.43.21-1.45,0-.64.52Zm17-.09-.54,0Q50.69,4.8,50.69,5.08Zm1.25,0c-.27-.67,1.15.12,1,0S52.29,5,51.94,5Zm37.39,1A2.41,2.41,0,0,1,89.58,6Z"/><path class="cls-1" d="M47.61,1.89s-.08,0-.14,0c.15.19.26.17.33-.05Z"/><path class="cls-1" d="M4.75,1a.12.12,0,0,1,0,.09L4.94,1Z"/><path class="cls-1" d="M4.5,1.12c.1,0,.19,0,.22-.06Z"/><path class="cls-1" d="M4.05,1.25l.45-.13C4.35,1.12,4.15,1.09,4.05,1.25Z"/><path class="cls-1" d="M11.9,1.42c-.89-.74-1.41-.8-1.56-.2C10.6.93,11.52,1.75,11.9,1.42Z"/><path class="cls-1" d="M62.23,6.86l1-.16A3.86,3.86,0,0,0,62.23,6.86Z"/><path class="cls-1" d="M113.64,8.17l-.15-.64C113.1,7.64,113,8.34,113.64,8.17Z"/><path class="cls-1" d="M135.74,8.2a1,1,0,0,0,1.24.25C136.48,8.39,136,8.13,135.74,8.2Z"/><path class="cls-1" d="M89.64.77,88.81,1A.85.85,0,0,0,89.64.77Z"/></g></g></svg>