{
    "accessors" : [
        {
            "bufferView" : 0,
            "componentType" : 5123,
            "count" : 90,
            "max" : [
                33
            ],
            "min" : [
                0
            ],
            "type" : "SCALAR"
        },
        {
            "bufferView" : 1,
            "componentType" : 5126,
            "count" : 34,
            "max" : [
                0.7392169833183289,
                -0.00926053524017334,
                0.5409952402114868
            ],
            "min" : [
                -0.03542441129684448,
                -0.3415469527244568,
                -0.008257335983216763
            ],
            "type" : "VEC3"
        },
        {
            "bufferView" : 2,
            "componentType" : 5126,
            "count" : 34,
            "max" : [
                0.9954222440719604,
                0.556108295917511,
                0.3635059595108032
            ],
            "min" : [
                -0.6728720664978027,
                -0.9923703670501709,
                -0.9083529114723206
            ],
            "type" : "VEC3"
        },
        {
            "bufferView" : 3,
            "componentType" : 5123,
            "count" : 1044,
            "max" : [
                197
            ],
            "min" : [
                0
            ],
            "type" : "SCALAR"
        },
        {
            "bufferView" : 4,
            "componentType" : 5126,
            "count" : 198,
            "max" : [
                0.4298376739025116,
                0.29488620162010193,
                0.7421261668205261
            ],
            "min" : [
                -0.6619664430618286,
                -0.487962007522583,
                -0.012318193912506104
            ],
            "type" : "VEC3"
        },
        {
            "bufferView" : 5,
            "componentType" : 5126,
            "count" : 198,
            "max" : [
                0.9954222440719604,
                0.7078157663345337,
                0.9980773329734802
            ],
            "min" : [
                -0.9685354232788086,
                -0.999755859375,
                -0.99993896484375
            ],
            "type" : "VEC3"
        },
        {
            "bufferView" : 6,
            "componentType" : 5123,
            "count" : 780,
            "max" : [
                161
            ],
            "min" : [
                0
            ],
            "type" : "SCALAR"
        },
        {
            "bufferView" : 7,
            "componentType" : 5126,
            "count" : 162,
            "max" : [
                0.9266330003738403,
                0.5389543771743774,
                0.6390953660011292
            ],
            "min" : [
                -0.34917524456977844,
                -0.487962007522583,
                -0.0275736004114151
            ],
            "type" : "VEC3"
        },
        {
            "bufferView" : 8,
            "componentType" : 5126,
            "count" : 162,
            "max" : [
                0.9925229549407959,
                0.9584948420524597,
                0.9937132000923157
            ],
            "min" : [
                -0.6209295988082886,
                -0.9923703670501709,
                -0.99981689453125
            ],
            "type" : "VEC3"
        },
        {
            "bufferView" : 9,
            "componentType" : 5123,
            "count" : 1332,
            "max" : [
                255
            ],
            "min" : [
                0
            ],
            "type" : "SCALAR"
        },
        {
            "bufferView" : 10,
            "componentType" : 5126,
            "count" : 256,
            "max" : [
                0.8763772249221802,
                1.0035717487335205,
                0.7438513040542603
            ],
            "min" : [
                -0.031206432729959488,
                0.17304947972297668,
                -0.008551197126507759
            ],
            "type" : "VEC3"
        },
        {
            "bufferView" : 11,
            "componentType" : 5126,
            "count" : 256,
            "max" : [
                0.9978026747703552,
                0.9983214735984802,
                0.9968260526657104
            ],
            "min" : [
                -0.9842829704284668,
                -0.7508163452148438,
                -0.99993896484375
            ],
            "type" : "VEC3"
        },
        {
            "bufferView" : 12,
            "componentType" : 5123,
            "count" : 2406,
            "max" : [
                443
            ],
            "min" : [
                0
            ],
            "type" : "SCALAR"
        },
        {
            "bufferView" : 13,
            "componentType" : 5126,
            "count" : 444,
            "max" : [
                0.9239984154701233,
                1.0201719999313354,
                0.7438513040542603
            ],
            "min" : [
                -1.0267900228500366,
                -0.2826235890388489,
                -0.01728176698088646
            ],
            "type" : "VEC3"
        },
        {
            "bufferView" : 14,
            "componentType" : 5126,
            "count" : 444,
            "max" : [
                0.8973662257194519,
                0.9983214735984802,
                0.9968260526657104
            ],
            "min" : [
                -0.9987792372703552,
                -0.9881893396377563,
                -0.999969482421875
            ],
            "type" : "VEC3"
        },
        {
            "bufferView" : 15,
            "componentType" : 5123,
            "count" : 273,
            "max" : [
                57
            ],
            "min" : [
                0
            ],
            "type" : "SCALAR"
        },
        {
            "bufferView" : 16,
            "componentType" : 5126,
            "count" : 58,
            "max" : [
                0.4316278398036957,
                -0.0837591290473938,
                0.2558507025241852
            ],
            "min" : [
                -0.0632912889122963,
                -0.7386396527290344,
                -0.008621158078312874
            ],
            "type" : "VEC3"
        },
        {
            "bufferView" : 17,
            "componentType" : 5126,
            "count" : 58,
            "max" : [
                0.9156773686408997,
                0.23490096628665924,
                0.9851984977722168
            ],
            "min" : [
                -0.9619739651679993,
                -0.9885860681533813,
                0.12189092487096786
            ],
            "type" : "VEC3"
        },
        {
            "bufferView" : 18,
            "componentType" : 5123,
            "count" : 2139,
            "max" : [
                386
            ],
            "min" : [
                0
            ],
            "type" : "SCALAR"
        },
        {
            "bufferView" : 19,
            "componentType" : 5126,
            "count" : 387,
            "max" : [
                0.7298481464385986,
                -0.009260540828108788,
                0.5211092233657837
            ],
            "min" : [
                -0.03542441129684448,
                -0.4164406657218933,
                -0.001802835613489151
            ],
            "type" : "VEC3"
        },
        {
            "bufferView" : 20,
            "componentType" : 5126,
            "count" : 387,
            "max" : [
                0.9929196834564209,
                0.48738059401512146,
                0.9954527616500854
            ],
            "min" : [
                -0.9917905330657959,
                -0.9988097548484802,
                -0.4926908016204834
            ],
            "type" : "VEC3"
        }
    ],
    "asset" : {
        "generator" : "Khronos Blender glTF 2.0 exporter",
        "version" : "2.0"
    },
    "bufferViews" : [
        {
            "buffer" : 0,
            "byteLength" : 180,
            "byteOffset" : 0,
            "target" : 34963
        },
        {
            "buffer" : 0,
            "byteLength" : 408,
            "byteOffset" : 180,
            "target" : 34962
        },
        {
            "buffer" : 0,
            "byteLength" : 408,
            "byteOffset" : 588,
            "target" : 34962
        },
        {
            "buffer" : 0,
            "byteLength" : 2088,
            "byteOffset" : 996,
            "target" : 34963
        },
        {
            "buffer" : 0,
            "byteLength" : 2376,
            "byteOffset" : 3084,
            "target" : 34962
        },
        {
            "buffer" : 0,
            "byteLength" : 2376,
            "byteOffset" : 5460,
            "target" : 34962
        },
        {
            "buffer" : 0,
            "byteLength" : 1560,
            "byteOffset" : 7836,
            "target" : 34963
        },
        {
            "buffer" : 0,
            "byteLength" : 1944,
            "byteOffset" : 9396,
            "target" : 34962
        },
        {
            "buffer" : 0,
            "byteLength" : 1944,
            "byteOffset" : 11340,
            "target" : 34962
        },
        {
            "buffer" : 0,
            "byteLength" : 2664,
            "byteOffset" : 13284,
            "target" : 34963
        },
        {
            "buffer" : 0,
            "byteLength" : 3072,
            "byteOffset" : 15948,
            "target" : 34962
        },
        {
            "buffer" : 0,
            "byteLength" : 3072,
            "byteOffset" : 19020,
            "target" : 34962
        },
        {
            "buffer" : 0,
            "byteLength" : 4812,
            "byteOffset" : 22092,
            "target" : 34963
        },
        {
            "buffer" : 0,
            "byteLength" : 5328,
            "byteOffset" : 26904,
            "target" : 34962
        },
        {
            "buffer" : 0,
            "byteLength" : 5328,
            "byteOffset" : 32232,
            "target" : 34962
        },
        {
            "buffer" : 0,
            "byteLength" : 546,
            "byteOffset" : 37560,
            "target" : 34963
        },
        {
            "buffer" : 0,
            "byteLength" : 696,
            "byteOffset" : 38108,
            "target" : 34962
        },
        {
            "buffer" : 0,
            "byteLength" : 696,
            "byteOffset" : 38804,
            "target" : 34962
        },
        {
            "buffer" : 0,
            "byteLength" : 4278,
            "byteOffset" : 39500,
            "target" : 34963
        },
        {
            "buffer" : 0,
            "byteLength" : 4644,
            "byteOffset" : 43780,
            "target" : 34962
        },
        {
            "buffer" : 0,
            "byteLength" : 4644,
            "byteOffset" : 48424,
            "target" : 34962
        }
    ],
    "buffers" : [
        {
            "byteLength" : 53068,
            "uri" : "brain3.bin"
        }
    ],
    "materials" : [
        {
            "name" : "Material",
            "pbrMetallicRoughness" : {
                "baseColorFactor" : [
                    0.8000000715255737,
                    0.4460844397544861,
                    0.3169771730899811,
                    1.0
                ],
                "metallicFactor" : 0.0
            }
        },
        {
            "name" : "Material.001",
            "pbrMetallicRoughness" : {
                "baseColorFactor" : [
                    0.8000000715255737,
                    0.7717002630233765,
                    0.2840215563774109,
                    1.0
                ],
                "metallicFactor" : 0.0
            }
        },
        {
            "name" : "Material.002",
            "pbrMetallicRoughness" : {
                "baseColorFactor" : [
                    0.30937930941581726,
                    0.8000000715255737,
                    0.7885239720344543,
                    1.0
                ],
                "metallicFactor" : 0.0
            }
        },
        {
            "name" : "Material.003",
            "pbrMetallicRoughness" : {
                "baseColorFactor" : [
                    0.8000000715255737,
                    0.379941463470459,
                    0.7626331448554993,
                    1.0
                ],
                "metallicFactor" : 0.0
            }
        },
        {
            "name" : "Material.004",
            "pbrMetallicRoughness" : {
                "baseColorFactor" : [
                    0.4154508113861084,
                    0.443977415561676,
                    0.8000000715255737,
                    1.0
                ],
                "metallicFactor" : 0.0
            }
        },
        {
            "name" : "Material.005",
            "pbrMetallicRoughness" : {
                "baseColorFactor" : [
                    0.5169396996498108,
                    0.8000000715255737,
                    0.38781630992889404,
                    1.0
                ],
                "metallicFactor" : 0.0
            }
        }
    ],
    "meshes" : [
        {
            "name" : "Icosphere.006",
            "primitives" : [
                {
                    "attributes" : {
                        "NORMAL" : 2,
                        "POSITION" : 1
                    },
                    "indices" : 0,
                    "material" : 0
                },
                {
                    "attributes" : {
                        "NORMAL" : 5,
                        "POSITION" : 4
                    },
                    "indices" : 3,
                    "material" : 3
                },
                {
                    "attributes" : {
                        "NORMAL" : 8,
                        "POSITION" : 7
                    },
                    "indices" : 6,
                    "material" : 5
                },
                {
                    "attributes" : {
                        "NORMAL" : 11,
                        "POSITION" : 10
                    },
                    "indices" : 9,
                    "material" : 4
                },
                {
                    "attributes" : {
                        "NORMAL" : 14,
                        "POSITION" : 13
                    },
                    "indices" : 12,
                    "material" : 1
                }
            ]
        },
        {
            "name" : "Icosphere.003",
            "primitives" : [
                {
                    "attributes" : {
                        "NORMAL" : 17,
                        "POSITION" : 16
                    },
                    "indices" : 15,
                    "material" : 2
                }
            ]
        },
        {
            "name" : "Icosphere.002",
            "primitives" : [
                {
                    "attributes" : {
                        "NORMAL" : 20,
                        "POSITION" : 19
                    },
                    "indices" : 18,
                    "material" : 0
                }
            ]
        }
    ],
    "nodes" : [
        {
            "name" : "Camera",
            "rotation" : [
                0.483536034822464,
                0.33687159419059753,
                -0.20870360732078552,
                0.7804827094078064
            ],
            "translation" : [
                7.481131553649902,
                5.34366512298584,
                6.5076398849487305
            ]
        },
        {
            "name" : "Lamp",
            "rotation" : [
                0.16907575726509094,
                0.7558802962303162,
                -0.27217137813568115,
                0.570947527885437
            ],
            "scale" : [
                1.0,
                1.0,
                0.9999999403953552
            ],
            "translation" : [
                4.076245307922363,
                5.903861999511719,
                -1.0054539442062378
            ]
        },
        {
            "mesh" : 0,
            "name" : "occipital",
            "scale" : [
                3.887476682662964,
                3.887476682662964,
                3.887476682662964
            ],
            "translation" : [
                -0.07797159254550934,
                -0.01463763415813446,
                0.029145702719688416
            ]
        },
        {
            "mesh" : 2,
            "name" : "occipital.002",
            "scale" : [
                3.887476682662964,
                3.887476682662964,
                3.887476682662964
            ],
            "translation" : [
                -0.07797159254550934,
                -0.01463763415813446,
                0.029145702719688416
            ]
        },
        {
            "mesh" : 1,
            "name" : "occipital.003",
            "scale" : [
                3.887476682662964,
                3.887476682662964,
                3.887476682662964
            ],
            "translation" : [
                -0.07797159254550934,
                -0.01463763415813446,
                0.029145702719688416
            ]
        }
    ],
    "scene" : 0,
    "scenes" : [
        {
            "name" : "Scene",
            "nodes" : [
                4,
                3,
                2,
                1,
                0
            ]
        }
    ]
}
